<?xml version="1.0" encoding="iso-8859-1"?>
<!-- Generator: Adobe Illustrator 18.1.1, SVG Export Plug-In . SVG Version: 6.00 Build 0)  -->
<!DOCTYPE svg PUBLIC "-//W3C//DTD SVG 1.1//EN" "http://www.w3.org/Graphics/SVG/1.1/DTD/svg11.dtd">
<svg version="1.1" id="Layer_1" xmlns="http://www.w3.org/2000/svg" xmlns:xlink="http://www.w3.org/1999/xlink" x="0px" y="0px"
	 viewBox="0 0 792 612" style="enable-background:new 0 0 792 612;" xml:space="preserve">
<g>
	<path style="fill:#E6E7E8;" d="M502.383,368.301c-0.268,0.15-0.531,0.365-0.796,0.729
		C501.839,368.875,502.099,368.597,502.383,368.301z M371.129,383.777c0.396,0.058,0.866-0.229,1.264-0.169
		C371.525,383.836,371.034,382.147,371.129,383.777z M496.854,368.94l-0.881,1.431l0.682-0.418L496.854,368.94z M380.869,382.206
		l0.199,0.031l-0.363-1.31L380.869,382.206z M485.241,370.396c0.305,0.233,0.188-1.156,0.361-0.787
		C485.938,368.459,483.575,371.001,485.241,370.396z M275.09,370.567c0.194-0.062,0.57-0.184,0.713,0.144l-0.185-1.447
		L275.09,370.567z M491.008,369.169l-0.916,0.28c0.444-0.053,0.603,0.182,0.827,0.352
		C490.898,369.549,490.721,369.186,491.008,369.169z M277.462,369.045l-0.849-0.481l0.543,0.767L277.462,369.045z M299.337,380.222
		c-0.046-0.044-0.103-0.065-0.145-0.117C299.176,380.236,299.241,380.244,299.337,380.222z M334.059,377.975
		c-0.028-0.031-0.06-0.051-0.09-0.092C333.538,378.28,333.727,378.217,334.059,377.975z M391.788,382.583l0.662,0.817l0.068-0.347
		C392.388,382.675,392.189,382.645,391.788,382.583z M514.156,370.51l0.42-0.234C514.502,370.123,514.39,370.07,514.156,370.51z
		 M280.578,370.293c0.186-0.058,0.489-0.056,0.775-0.066C281.214,370.159,280.981,370.163,280.578,370.293z M509.843,368.528
		c-0.049,0.338,0.279,0.901,0.343,1.334l0.599-0.388C510.474,369.242,509.887,369.029,509.843,368.528z M514.986,370.098
		c-0.07,0.471,0.104,0.018,0.482-0.315l-0.892,0.494C514.697,370.533,514.712,371.048,514.986,370.098z M510.186,369.862
		l-0.897,0.581C510.093,370.511,510.239,370.235,510.186,369.862z M504.127,368.624c0.374-0.648-0.523-1.097-0.126-1.496
		c-0.618,0.116-1.144,0.673-1.618,1.173C502.887,368.022,503.427,368.093,504.127,368.624z M433.078,380.933
		c0.652-1.202,1.02-1.055,1.51-0.8l-0.495-2.785L433.078,380.933z M434.603,380.213c0.02-0.01,0.03-0.035,0.048-0.047l-0.062-0.034
		L434.603,380.213z M491.811,375.498l0.592,0.216l-0.235-1.115L491.811,375.498z M411.627,379.487
		c-0.086-0.181-0.109-0.382-0.129-0.584C411.375,379.084,411.371,379.292,411.627,379.487z M491.871,372.738
		c0.076,0.903,0.651,0.597,1.293,0.429c-0.039,0.003-0.075,0.011-0.114,0C493.234,371.902,492.551,372.321,491.871,372.738z
		 M461.244,380.105c-0.295-0.154-0.46-0.351-0.569-0.554C460.659,379.813,460.793,380.035,461.244,380.105z M364.19,381.472
		c-0.016-0.009-0.032-0.006-0.048-0.012c-0.027,0.064-0.042,0.129-0.051,0.193L364.19,381.472z M364.091,381.652l-0.535,0.979
		C364.38,382.633,364.022,382.134,364.091,381.652z M410.698,379.327c0.194,0.218,0.471,0.425,0.864,0.623L410.698,379.327z
		 M385.224,380.894l0.083-0.433C385.155,380.698,385.091,380.874,385.224,380.894z M445.467,380.002
		c0.129-0.089,0.265-0.198,0.41-0.345C445.644,379.799,445.535,379.908,445.467,380.002z M479.151,378.271l0.527-0.535
		c-0.304-0.231-0.325-0.48-0.497-0.848L479.151,378.271z M476.204,379.074c0.113-0.38,1.236-0.699,0.204-1.014
		C476.298,378.444,474.783,379.161,476.204,379.074z M383.317,370.565c-0.277,0.172-0.397,0.368-0.39,0.583
		C383.212,370.986,383.374,370.803,383.317,370.565z M445.467,380.002c-0.803,0.565-1.224,0.246-0.858,1.737
		c1.329,0.543,0.318-1.399,1.518-0.721C446.44,380.483,445.146,380.466,445.467,380.002z M487.324,374.896l1.028,0.309
		c-0.016-0.187,0.114-0.297,0.274-0.38C487.993,374.787,487.298,374.565,487.324,374.896z M489.452,374.639
		c-0.178,0.012-0.562,0.049-0.826,0.185C488.956,374.846,489.269,374.822,489.452,374.639z M488.533,373.944
		c0.034-0.233,0.093-0.38,0.168-0.47C488.611,373.583,488.543,373.721,488.533,373.944z M489.97,375.735l1.03,0.314l-0.305-0.233
		L489.97,375.735z M510.133,375.39c-0.058-0.085-0.055-0.153-0.06-0.223C509.954,375.285,509.909,375.366,510.133,375.39z
		 M514.023,372.275l1.471-1.22l-1.756,1.236L514.023,372.275z M507.824,371.771l0.467-0.302l-0.355-0.08L507.824,371.771z
		 M510.161,374.013l-0.13,0.13c-0.745-0.329-1.706-1.526-1.577-1.658c0.222,0.863,0.417,1.478,0.916,2.325
		c0.133-0.134,0.243-0.518,0.679-0.419c0.38,0.288,0.001,0.46,0.023,0.775C510.334,374.913,510.988,374.479,510.161,374.013z
		 M511.104,373.327c0.375-0.651-0.238-1.113,0.553-1.913C511.132,371.946,510.032,372.516,511.104,373.327z M509.314,370.805
		l-1.023,0.664l0.957,0.217C509.228,371.435,509.053,371.069,509.314,370.805z M507.755,370.275
		c0.035,0.093,0.055,0.125,0.089,0.004L507.755,370.275z M506.01,368.886l0.396-0.4l0.506-0.783L506.01,368.886z M507.413,370.292
		l-0.013-0.03c-0.384-0.027-0.651-0.045-0.765-0.053C506.733,370.219,506.967,370.244,507.413,370.292z M507.041,369.31l0.359,0.951
		c0.108,0.004,0.23,0.009,0.355,0.014C507.684,370.071,507.547,369.536,507.041,369.31z M517.175,368.959
		c0.198,0.619-0.673,0.533,0.731,0.194c-0.071-0.068-0.092-0.107-0.133-0.157C517.647,369.005,517.472,369.003,517.175,368.959z
		 M526.203,372.412l0.108-0.38l-0.918,0.933L526.203,372.412z M520.042,374.039l0.614,0.465l0.524-0.533
		C520.919,374.236,520.001,373.541,520.042,374.039z M520.33,372.395c0.567,1.589,2.126-0.257,3.176,0.308l0.175,0.362l0.462-1.279
		C522.874,371.99,521.229,372.839,520.33,372.395z M532.464,370.294c0.381,0.082,0.236-0.851,0.292-1.019
		C532.122,369.482,532.482,370.536,532.464,370.294z M505.031,369.976c0.021-0.015,0.039-0.033,0.061-0.042
		C504.957,369.729,504.974,369.829,505.031,369.976z M517.773,368.996C518.391,368.951,517.365,368.476,517.773,368.996
		L517.773,368.996z M515.977,370.025c0.459,0.346,1.051,0.563,0.237,1.113C517.771,370.92,517.533,369.802,515.977,370.025z
		 M515.101,368.085c-0.833,0.302-0.659,0.665-0.18,1.265l0.811-0.552C515.559,368.433,514.833,368.35,515.101,368.085z
		 M504.31,374.241l-0.042-0.499c0.875,0.196,0.683-0.419,0.789-0.802l-1.533,0.471L504.31,374.241z M493.313,373.136
		c0.198-0.042,0.4-0.066,0.594-0.023C493.98,372.607,493.665,373.008,493.313,373.136z M487.267,370.094
		c-0.159-0.119-0.343-0.217-0.542-0.287C486.813,369.882,486.978,369.975,487.267,370.094z M492.606,369.448
		c0.735,1.962-3.019-0.082-1.844,1.98c-0.867-1.83-1.492-0.776-2.622-2.337c0.036,0.45,0.401,0.861-0.59,0.639
		c-0.044,0.132-0.149,0.299-0.216,0.397c-0.029-0.015-0.041-0.02-0.067-0.034l0.055,0.053c-0.043,0.067-0.046,0.082,0.02,0.018
		c0.237,0.197,0.429,0.434,0.507,0.685c-0.488,1.034-2.064,1.001-2.595,1.536c-0.589-0.214,0.244-0.516-0.078-0.997l-0.794,0.8
		c-0.082-1-1.567-1.661-0.184-2.247l-1.247-0.044c-0.735-0.561-1.745-0.784-2.366-0.363c-0.01-0.004-0.022,0.001-0.033-0.002
		V239.792h3.798v-5.992h-49.147v-30.546h1.222v-1.581h-27.03v1.581h1.222v30.546h-10.264v5.992h3.797v133.956
		c-0.438,0.405-0.958-0.333-1.77-0.182l0.032-0.176c-2.422-1.262-1.053,0.583-3.442-0.853l0.123,1.069
		c-0.239,2.295-2.116-1.375-3.513-0.51l0.498,0.615c-0.766,0.779-2.103-3.143-2.865-3.438c-0.165-0.202,0.265-0.318,0.498-0.463
		c-1.989-1.374-0.269,1.396-1.76,1.707c-0.269-0.757,0.367-1.915-0.634-2.065c-0.495-0.616-2.924,2.421-4.281,0.961
		c0.297,0.584,0.592,1.168-0.102,1.598c-1.062,0.197-2.85-2.226-3.821-0.402c-0.134-0.16-0.183-0.313-0.188-0.457
		c-0.814,0.465-2.64,0.76-3.135,1.749c-0.721-3.696-5.052,1.745-5.008-1.657l-2.494,0.158l0.068-0.347
		c-0.772-0.117-1.296,0.02-1.703,0.277v-34.605h2.211v-1.581h-48.906v1.581h2.211v35.108c-2.024-0.813-5.576-0.072-6.16-0.634
		c-0.495,0.413-0.989,0.617-1.5,0.726V275.1H286.81v4.081h3.154v35.515h-9.509v2.413h1.864v52.614
		c-0.209-0.116-0.418-0.221-0.626-0.356c0.761,0.766,0.248,0.836-0.34,0.859c0.38,0.185-0.019,0.967,0.05,1.498l-2.362-1.497
		c-0.45,1.469-2.551,0.075-2.815,1.48l0.756-0.246c-1.02,1.652,1.36,3.707,1.19,5.838c1.142-1.878,2.927,2.827,4.798,0.14
		c0.402,0.439-0.354,0.683-0.142,1.18c0.477-0.91,1.042-1.094,2.082-0.674l-0.12,0.225c2.936-0.194,4.184,0.719,7.473,1.351
		l-0.233-1.057c0.707,0.148,0.852,0.48,1.181,0.747c0.83-1.591-1.988-0.11-1.229-1.865c0.917,2.155,4.993,0.081,5.603,2.526
		c1.089,0.023-0.307-1.224,0.782-1.199l0.282,0.663l0.284-0.847c0.713,0.147,1.064,0.976,1.085,1.535
		c-0.173-0.068-0.494,0.152-0.68,0.198c0.918,0.786,2.615-0.24,2.93,0.017l-1.043-0.417c2.979-0.588,6.601,0.313,9.487-1l-0.213-0.5
		c2.203-0.899,1.751,0.564,4.164,0.161l-0.089,0.118c0.487-0.491,1.133-0.735,1.791-0.672c-0.614,0.577,1.133,1.144,0.329,1.78
		c2.388-0.965,1.184-0.765,2.773-2.598l0.354,0.829c0.543-0.741,0.591-1.135,1.796-1.337c-0.993,0.699,0.756,1.265-0.358,2.191
		c2.507,1.83,3.765-1.786,4.898,0.865c1.18-2.274-2.172-1.29-1.519-1.773c-0.536-0.752,0.973-1.698,1.763-1.461
		c0.806,0.059,1.344,2.936,3.372,2.912c-0.202-0.013-0.217,0.16-0.418,0.148c0.754,0.59,1.495-0.775,2.417,0.181
		c0.535-1.376,1.208,0.091,1.375-1.669l-1.864,0.39c1.059-0.451,2.067-2.503,3.795-1.486c-0.139,0.354-0.66,0.817-1.017,1.074
		c0.503,0.524,0.981-0.335,1.503,0.204c-0.166,1.763-2.264,0.362-3.407,1.695c0.539,0.75,2.149-1.256,1.564,0.648
		c0.838-2.421,1.996,0.326,3.386-1.515l-0.1,1.056c0.219-0.164,0.674-0.659,1.073-0.628l-0.736,1.363
		c1.122-1.158,2.135,1.043,3.207,0.417c-2.234,0.011-0.49-1.278-1.427-2.058c2.767-1.387,1.559,2.779,4.648,2.302
		c-0.419,0.145-1.562-0.65-0.905-1.133c0.585,0.223,1.357,0.636,1.712,1.194c2.045-0.2-0.304-1.09,0.571-1.73
		c0.685,1.294,1.008-0.514,1.907-0.918l-0.003,1.074c2.322,0.712,0.636-2.232,2.725-1.379l-0.899,1.481l1.096-0.374l-0.236,1.22
		c1.197-0.895,1.565-0.657,2.727-0.303c-0.264-0.759,0.168-1.948,1.2-1.971c0.698,0.645-0.402,1.017,1.061,0.878
		c-0.336,0.669-0.704,1.508-1.332,0.513c-0.068,0.349-0.331,0.671-0.401,1.016c0.751,0.741,1.902,0.186,2.432,0.181
		c-0.204-0.042-0.447-0.102-0.57-0.257l2.132-1.467c0.33,0.407,0.063,0.728-0.202,1.043c0.43-0.112,0.731-0.603,1.363-0.689
		c-0.171,0.871-0.139,1.773-1.036,2.175l2.027-0.949c0.132,0.381,1.027,1.052,0.763,1.372c1.115,0.524,2.76-1.667,4.238-0.975
		c0.079-0.169,0.234-0.329,0.551-0.451c1.393,0.211,2.62,1.294,4.283,0.113l0.926,1.574c1.297-0.343-1.254-1.984,0.906-2.553
		c1.53-0.484,0.56,1.341,1.092,1.782c0.765-0.782,2.097-2.374,3.489-1.087c-0.466,0.29-0.829,0.055-1.263,0.167l1.062,0.878
		c-1.301,1.416-2.23,0.914-1.236,2.145c0.174-3.022,4.156-0.269,4.327-3.289l0.699,0.643c-0.202-0.031-0.235,0.146-0.435,0.114
		c1.359,1.461,1.034-2.176,2.796-1.728c0.613,0.238,1.039,0.681,0.617,1.035l1.376-0.734c0.398,0.063,0.297,0.587-0.099,0.525
		l2.092-0.221l-0.016,0.089c0.302-0.472,0.983-1.198,1.315-1.507c0.528,0.439-0.269,0.318-0.136,0.697l1.163-0.721
		c0.466,0.788-0.499,1.539-1.297,1.419c1.059,3.029,0.966-0.752,3.286,1.034l-1.096,0.373c0.692,1.722,1.55,1.109,2.778,2.19
		c-0.289-0.562-2.455-2.719-1.194-3.46c0.352,0.232,0.818,0.345,1.5-0.257c-0.001,1.075,0.662,0.817,1.491,0.765l-0.066,1.423
		c0.898-0.402,0.832-1.128,1.363-1.764c0.997,0.15,1.196,1.255,1.425,2.187c1.596,0.242-1.091-1.779,0.802-2.029
		c1.325,0.557,2.262-0.015,3.857-0.852c0.927,0.499-0.168,0.869,0.163,1.28l0.832-1.128c0.202,0.029,0.134,0.378,0.1,0.553
		c0.698-0.434,0.067-1.422,1.161-1.799c0.304-1.562,2.227,2.313,3.591,0.526c0.33,0.404-0.167,0.873-0.068,1.424
		c1.863-1.169,1.596-0.849,3.128-2.422l1.292,0.935c-0.943-1.064,0.267-2.323,1.336-3.36h0.024l0.181,0.279
		c0.049-0.1,0.089-0.183,0.136-0.279h0.938c-0.062,0.366-0.248,0.765-0.465,1.157c-0.198-0.286-0.405-0.584-0.608-0.878
		c-0.425,0.865-0.824,1.823-0.741,2.657c0.112-0.164,0.326-0.305,0.56-0.385c-0.111,0.235-0.183,0.445-0.133,0.587
		c0.057,0.15,0.236-0.165,0.517-0.528l0.378,1.587l0.098-0.63l2.222,0.993c1.573-1.569,2.955-3.855,5.399-4.559h0.116
		c-0.592,1.135-0.127,1.874-0.167,3.233c-0.683-1.46-1.962,0.621-3.272,0.324c0.683,0.153,0.53,0.811,0.354,1.04l2.345-1.329
		c-0.058,1.128,0.493,0.846,1.101,1.312c-0.451-2.229,1.75-1.485,2.704-2.169c0.056,0.749-0.175,1.513-1.335,1.333
		c1.274,1.678,1.666-2.619,2.917-1.193c-0.284,0.018-0.436-0.097-0.549,0.284c0.665-0.665,2.281-0.139,1.898,0.514l-0.283,0.015
		c1.881,0.264,5.729,0.015,6.015-1.878c0.018,0.245-0.254,2.283-0.369,2.665l2.2-4.152h1.201c0.128,1.69,0.271,3.59-0.765,4.199
		c0.447,0.231,1.001,0.502,1.947-0.072c-0.305-0.231-0.755-2.351-0.338-2.5c1.141,1.811,0.793,0.968,2.203,2.512
		c-0.457-0.349,0.058-2.899,0.782-2.818c-0.114,0.382,0.054,2.517-0.211,2.783l1.808-2.504c-0.451,0.451-0.084,2.122,0.318,2.829
		c-0.186-0.49,1.558,0.046,2.039-0.203l-0.763-0.58c2.034,0.378,2.016-3.521,4.033-3.39c-0.245,0.518-0.608,3.183,0.418,3.498
		c0.24-0.651,0.776-2.228,1.478-3.754h2.241c-0.937,1.595-1.976,3.202-2.693,4.066c0.761,0.58,0.211,0.864,1.351,0.798
		c0.402,0.687-0.623,1.042-0.958,1.083l2.655,0.443c-0.117-1.498,2.032-1.501,1.932-2.748l-2.885,1.552
		c-0.115-1.494,1.672-4.248,3.552-3.984c0.478,0.595-0.36,2.664-0.321,3.163c0.245-0.515,1.786-0.984,1.959-0.619l-0.798,0.8
		c1.047,0.563,1.71-1.984,2.968-0.556c0.434,0.096,1.297,1.927,1.372,1.041c-0.407-0.981-0.619-3.134-0.642-5.039h1.45l-0.037,0.346
		l0.285-0.018l-0.006-0.328h1.503c-0.016,1.22-1.118,2.637-0.617,3.583c0.026-0.409,0.421-0.913,0.586-1.075
		c0.456,0.349-0.189,1.267,0.802,1.082c0.165-1.518,2.016,0.128,0.468-1.283c0.969-0.434,1.03,0.312,2.169,0.246
		c-0.219-0.592,0.202-1.683,0.78-2.552h1.514c0.005,0.005,0.009,0.008,0.007,0h0.683c1.53,0.228,2.578,0.726,4.18,0.737
		c0.171,0.367,1.066,0.812,0.686,1.465c0.266-0.268,0.51-0.783,1.082-0.82c1.108,1.312-1.274,0.204-0.428,1.781
		c0.071-0.882,1.476-1.217,2.289-1.768c-0.253-1.362-1.881-0.261-2.695,0.29c-0.002-0.566,0.138-1.136,0.369-1.685h7.289
		c1.614,0.141,3.934-0.026,5.437,0.642c0.395-0.401,1.078-0.816,0.752-1.298l-0.705,0.168c-0.651-0.965,1.323-1.335,0.429-1.786
		c0.944-0.678,2.001-1.745,3.335-1.2l0.255,1.365c-0.03-0.399-0.874-0.813-1.247-0.397c0.553-0.605,2.049,1.847,2.651,0.06
		l-0.937-0.946c0.948-0.686,2.116-2.135,3.297-1.705C493.18,369.523,493.451,371.025,492.606,369.448z M287.144,365.141h-2.632
		v-9.211h2.632V365.141z M287.144,353.297h-2.632v-9.211h2.632V353.297z M287.144,341.454h-2.632v-9.211h2.632V341.454z
		 M287.144,329.611h-2.632v-9.211h2.632V329.611z M289.964,365.141h-0.367v-9.211h0.367V365.141z M289.964,353.297h-0.367v-9.211
		h0.367V353.297z M289.964,341.454h-0.367v-9.211h0.367V341.454z M289.964,329.611h-0.367v-9.211h0.367V329.611z M297.314,360.438
		h-2.632v-4.508h2.632V360.438z M297.314,353.297h-2.632v-8.443h2.632V353.297z M297.314,340.402h-2.632v-8.159h2.632V340.402z
		 M297.314,329.611h-2.632v-4.792h2.632V329.611z M298.127,314.697h-4.452v-9.914h4.452V314.697z M298.127,300.33h-4.452v-15.583
		h4.452V300.33z M302.399,360.438h-0.123v-4.508h0.123V360.438z M302.399,353.297h-0.123v-8.443h0.123V353.297z M302.399,340.402
		h-0.123v-8.159h0.123V340.402z M302.399,329.611h-0.123v-4.792h0.123V329.611z M306.729,360.438h-1.877v-4.508h1.877V360.438z
		 M306.729,353.297h-1.877v-8.443h1.877V353.297z M306.729,340.402h-1.877v-8.159h1.877V340.402z M306.729,329.611h-1.877v-4.792
		h1.877V329.611z M306.729,314.697h-4.452v-9.914h4.452V314.697z M306.729,300.33h-4.452v-15.583h4.452V300.33z M310.305,371.94
		h0.258c0.038,0.13,0.097,0.273,0.207,0.445C310.44,372.299,310.336,372.138,310.305,371.94z M312.57,360.438h-1.69v-4.508h1.69
		V360.438z M312.57,353.297h-1.69v-8.443h1.69V353.297z M312.57,340.402h-1.69v-8.159h1.69V340.402z M312.57,329.611h-1.69v-4.792
		h1.69V329.611z M315.332,360.438h-0.309v-4.508h0.309V360.438z M315.332,353.297h-0.309v-8.443h0.309V353.297z M315.332,340.402
		h-0.309v-8.159h0.309V340.402z M315.332,329.611h-0.309v-4.792h0.309V329.611z M315.332,314.697h-4.452v-9.914h4.452V314.697z
		 M315.332,300.33h-4.452v-15.583h4.452V300.33z M316.462,371.972c0.333,0.271,0.519,1.718-0.642,1.53
		c0.124-0.817,0.01-1.27-0.224-1.563h2.867C317.841,372.064,317.19,372.041,316.462,371.972z M327.266,372.669h0.043
		c0.021,0.039,0.029,0.063,0.053,0.105C327.339,372.731,327.292,372.71,327.266,372.669z M331.893,368.212h-3.121v-6.039h3.121
		V368.212z M331.893,360.448h-3.121v-6.039h3.121V360.448z M331.893,352.684h-3.121v-6.039h3.121V352.684z M331.893,344.92h-3.121
		v-6.039h3.121V344.92z M337.925,368.212h-3.122v-6.039h3.122V368.212z M337.925,360.448h-3.122v-6.039h3.122V360.448z
		 M337.925,352.684h-3.122v-6.039h3.122V352.684z M337.925,344.92h-3.122v-6.039h3.122V344.92z M343.956,368.212h-3.122v-6.039
		h3.122V368.212z M343.956,360.448h-3.122v-6.039h3.122V360.448z M343.956,352.684h-3.122v-6.039h3.122V352.684z M343.956,344.92
		h-3.122v-6.039h3.122V344.92z M346.866,338.882h3.122v6.039h-3.122V338.882z M346.866,346.646h3.122v6.039h-3.122V346.646z
		 M346.866,354.409h3.122v6.039h-3.122V354.409z M346.866,368.212v-6.039h3.122v6.039H346.866z M351.211,374.997
		c-0.865,0.227-2.22-1.234-1.158-1.43l0.164,0.203c0.12-0.616-0.083-0.92-0.404-1.101h1.161
		C352.485,373.103,350.372,374.364,351.211,374.997z M356.019,368.212h-3.121v-6.039h3.121V368.212z M356.019,360.448h-3.121v-6.039
		h3.121V360.448z M356.019,352.684h-3.121v-6.039h3.121V352.684z M356.019,344.92h-3.121v-6.039h3.121V344.92z M362.05,368.212
		h-3.121v-6.039h3.121V368.212z M362.05,360.448h-3.121v-6.039h3.121V360.448z M362.05,352.684h-3.121v-6.039h3.121V352.684z
		 M362.05,344.92h-3.121v-6.039h3.121V344.92z M365.045,372.814l-0.026-0.145h0.198C365.157,372.72,365.109,372.759,365.045,372.814
		z M368.081,368.212h-3.122v-6.039h3.122V368.212z M368.081,360.448h-3.122v-6.039h3.122V360.448z M368.081,352.684h-3.122v-6.039
		h3.122V352.684z M368.081,344.92h-3.122v-6.039h3.122V344.92z M388.943,380.742c0.361-1.227,0.63-0.635,1.155-0.276
		C389.786,380.688,389.164,381.378,388.943,380.742z M412.056,205.411h1.725v6.039h-1.725V205.411z M412.056,213.175h1.725v6.039
		h-1.725V213.175z M412.056,220.939h1.725v6.039h-1.725V220.939z M412.056,228.703h1.725v5.098h-1.725V228.703z M408.62,247.963
		h5.361v22.877h-5.361V247.963z M408.62,277.376h5.361v22.877h-5.361V277.376z M408.62,306.79h5.361v22.877h-5.361V306.79z
		 M408.62,359.082v-22.877h5.361v22.877H408.62z M413.402,377.79c0.292-0.088,0.622-0.048,0.986,0.227
		C414.156,378.372,413.801,378.196,413.402,377.79z M417.115,233.801h-1.725v-5.098h1.725V233.801z M417.115,226.977h-1.725v-6.039
		h1.725V226.977z M417.115,219.214h-1.725v-6.039h1.725V219.214z M417.115,211.45h-1.725v-6.039h1.725V211.45z M422.057,205.411
		h1.725v6.039h-1.725V205.411z M422.057,213.175h1.725v6.039h-1.725V213.175z M422.057,220.939h1.725v6.039h-1.725V220.939z
		 M422.057,228.703h1.725v5.098h-1.725V228.703z M418.723,205.411h1.726v6.039h-1.726V205.411z M418.723,213.175h1.726v6.039h-1.726
		V213.175z M418.723,220.939h1.726v6.039h-1.726V220.939z M418.723,228.703h1.726v5.098h-1.726V228.703z M424.34,359.082h-5.361
		v-22.877h5.361V359.082z M424.34,329.668h-5.361V306.79h5.361V329.668z M424.34,300.254h-5.361v-22.877h5.361V300.254z
		 M424.34,270.84h-5.361v-22.877h5.361V270.84z M427.115,233.801h-1.725v-5.098h1.725V233.801z M427.115,226.977h-1.725v-6.039
		h1.725V226.977z M427.115,219.214h-1.725v-6.039h1.725V219.214z M427.115,211.45h-1.725v-6.039h1.725V211.45z M432.057,205.411
		h1.725v6.039h-1.725V205.411z M432.057,213.175h1.725v6.039h-1.725V213.175z M432.057,220.939h1.725v6.039h-1.725V220.939z
		 M432.057,228.703h1.725v5.098h-1.725V228.703z M428.723,205.411h1.726v6.039h-1.726V205.411z M428.723,213.175h1.726v6.039h-1.726
		V213.175z M428.723,220.939h1.726v6.039h-1.726V220.939z M428.723,228.703h1.726v5.098h-1.726V228.703z M434.699,359.082h-5.361
		v-22.877h5.361V359.082z M434.699,329.668h-5.361V306.79h5.361V329.668z M434.699,300.254h-5.361v-22.877h5.361V300.254z
		 M434.699,270.84h-5.361v-22.877h5.361V270.84z M445.058,359.082h-5.362v-22.877h5.362V359.082z M445.058,329.668h-5.362V306.79
		h5.362V329.668z M445.058,300.254h-5.362v-22.877h5.362V300.254z M445.058,270.84h-5.362v-22.877h5.362V270.84z M455.418,359.082
		h-5.362v-22.877h5.362V359.082z M455.418,329.668h-5.362V306.79h5.362V329.668z M455.418,300.254h-5.362v-22.877h5.362V300.254z
		 M455.418,270.84h-5.362v-22.877h5.362V270.84z M465.777,359.082h-5.362v-22.877h5.362V359.082z M465.777,329.668h-5.362V306.79
		h5.362V329.668z M465.777,300.254h-5.362v-22.877h5.362V300.254z M465.777,270.84h-5.362v-22.877h5.362V270.84z M476.136,359.082
		h-5.361v-22.877h5.361V359.082z M476.136,329.668h-5.361V306.79h5.361V329.668z M476.136,300.254h-5.361v-22.877h5.361V300.254z
		 M476.136,270.84h-5.361v-22.877h5.361V270.84z M481.992,370.529l-0.033,0.052C481.269,370.163,481.514,370.328,481.992,370.529z
		 M482.194,375.203c-0.677,0.245-1.183,0.003-1.641-0.263v-3.198c0.344-0.149,0.769-0.127,1.378,0.216
		C482.886,373.155,481.98,374.34,482.194,375.203z M499,375.814c0.133-0.132,0.284-0.014,0.416-0.148l-0.039-0.499
		C498.806,375.2,498.408,375.602,499,375.814z M494.73,369.193l-0.524,0.532l0.454,0.35L494.73,369.193z M486.04,369.707
		c0.242-0.015,0.468,0.03,0.685,0.1c-0.083-0.065-0.118-0.12-0.096-0.152C486.505,369.666,486.329,369.681,486.04,369.707z
		 M487.18,369.637c0.148,0.037,0.261,0.066,0.37,0.093C487.603,369.57,487.556,369.469,487.18,369.637z M486.629,369.655
		C487.052,369.591,486.696,369.548,486.629,369.655L486.629,369.655z M500.188,369.475c0.215,0.199,0.459,0.367,0.714,0.523
		C500.692,369.697,500.262,369.228,500.188,369.475z M500.945,370.058l0.009-0.003l-0.002,0.015c0.08,0.12,0.107,0.192,0.017,0.123
		c-0.006,0.012-0.038,0.02-0.038,0.02c-0.012,0.134-0.045,0.25-0.081,0.362c-0.534-0.198-0.085-0.249,0.081-0.362l0.022-0.143
		L500.945,370.058l-1.841,0.526c0.391,0.133,0.879,0.105,1.745-0.004c-0.299,0.96-1.231,1.368-0.654,2.406
		c1.141-0.066,0.796-0.801,1.475-1.218c-1.84,0.238,0.526-0.534-0.807-1.078c0.361-0.163,0.686-0.213,0.993-0.254
		c-0.332-0.116-0.652-0.261-0.954-0.438L500.945,370.058z M504.489,370.556c0.25-0.075,0.481-0.177,0.682-0.317
		c-0.051-0.067-0.103-0.17-0.14-0.263C504.82,370.113,504.655,370.348,504.489,370.556z M503.229,369.921
		c-0.411,0.414-0.863,0.449-1.372,0.515c0.548,0.187,1.114,0.288,1.651,0.286C503.582,370.423,503.815,369.887,503.229,369.921z
		 M497.753,369.388c-0.645,0.43-0.777,0.758-0.821,1.051l1.915,0.123l-0.132,0.132l0.388-0.109
		C498.659,370.43,498.341,370.078,497.753,369.388z M505.263,370.185l-0.091,0.054C505.228,370.319,505.273,370.345,505.263,370.185
		z M503.6,370.899c0.412,0.184,0.657-0.049,0.889-0.343c-0.307,0.096-0.632,0.158-0.982,0.166
		C503.474,370.856,503.468,370.945,503.6,370.899z M495.947,371.864c0.333,0.481,2.102,1.126,1.308,1.924
		c-1.25,0.455-1.027-0.312-1.638-0.778c0.522,1.099-1.586,1.599-1.307,3.215l1.096-0.569c0.022,0.251-0.375,0.652-0.069,0.882
		c0.069-0.882,1.147-1.697,2.084-0.751c0.916-0.661,0.302-3.561-0.507-5.183C496.888,370.988,496.889,371.343,495.947,371.864z
		 M496.914,370.603l0.018-0.164l-0.099-0.009C496.858,370.484,496.888,370.547,496.914,370.603z"/>
</g>
<g>
	<path style="fill:#6D6E71;" d="M319.376,150.711h-14.141v13.314h14.141V150.711z M310.635,135.127h-2.226v15.583h2.226V135.127z
		 M316.201,135.127h-2.226v15.583h2.226V135.127z M469.412,369.937v-70.134c0-3.79-31.803-5.224-31.803-5.224
		s31.803,0.109,31.803-4.646V171.505c0-5.498-17.448-6.465-26.494-6.598v-3.116h-20.036v3.124H386.52v-4.026h-20.036v4.026h-17.057
		v2.731l8.126,0.594v197.234c0,0-27.268,3.247-29.61,0V164.915h-39.167v2.731l9.557,0.698V363.7c0,8.905,29.61,9.578,29.61,9.578
		l29.61-4.205v4.205h51.543v-76.786c12.207-0.241,28.513,0.052,28.513,3.338v73.448h40.162v-2.731L469.412,369.937z
		 M459.745,274.454h2.295v9.276h-2.295V274.454z M445.392,184.126h2.295v9.276h-2.295V184.126z M305.521,283.679h-2.295v-9.276
		h2.295V283.679z M305.521,182.758h-2.295v-9.276h2.295V182.758z M310.708,208.352h-2.295v-9.276h2.295V208.352z M313.093,327.914
		h-2.295v-9.276h2.295V327.914z M315.483,182.758h-2.295v-9.276h2.295V182.758z M318.658,230.173h-2.295v-9.276h2.295V230.173z
		 M367.632,184.126h-2.295v-9.276h2.295V184.126z M385.615,370.084h-4.545V251.673h-0.023v-9.276h0.023v-74.736h4.545V370.084z
		 M395.47,292.955h-2.295v-9.276h2.295V292.955z M400.193,225.535h-2.295v-9.276h2.295V225.535z M409.096,292.237V169.94h28.513
		v118.916C437.609,291.99,421.303,292.382,409.096,292.237z"/>
</g>
<g>
	<path style="fill:none;stroke:#BCBEC0;stroke-miterlimit:10;" d="M260.691,479.033c-2.294,0-4.504-1.329-6.569-3.95
		c-1.783-2.227-2.973-4.583-3.525-6.992c-0.873-3.816-1.099-8.483-0.673-13.87c0.557-4.442,1.103-8.851,1.642-13.265
		c-0.442,0.493-0.947,1.071-1.523,1.748l-1.396,1.639l-3.996-3.384l1.128-1.613c6.03-8.625,8.57-10.184,10.259-10.57
		c0.449-0.104,0.89-0.155,1.308-0.155c1.086,0,3.705,0.4,4.554,4.114c0.11,0.476,0.11,0.476-1.552,14.011
		c-1.041,8.482-1.004,15.251,0.109,20.117c0.146,0.636,0.577,1.277,1.283,1.906c0.228,0.203,0.412,0.35,0.557,0.455
		c0.668-0.938,2.21-3.928,4.703-13.309c-0.018-5.128,0.13-12.81,0.439-22.84c0.369-5.243,0.591-7.049,2.495-7.479
		c1.669-0.383,4.031-0.731,7.212-1.062l1.906-0.198l0.935,4.119l-1.589,0.733c-0.365,0.168-0.833,1.058-0.952,3.011
		c-0.023,0.339-0.047,0.676-0.069,1.011l0.802-1.034c6.453-8.319,9.065-9.749,10.77-10.051c0.215-0.038,0.423-0.056,0.626-0.056
		c1.087,0,2.946,0.502,3.764,3.693c1.92-3.795,3.891-5.783,6.125-6.179c0.313-0.057,0.661-0.085,1.026-0.085
		c1.062,0,2.366,0.24,3.985,0.735c1.293,0.396,1.95,0.549,2.26,0.606c0.091-0.146,0.351-0.591,0.546-1.666l0.406-2.235l0.869,0.203
		c0.177-0.653,0.359-1.312,0.55-1.983c5.52-19.348,9.318-22.357,12.306-22.75c0.199-0.026,0.409-0.04,0.626-0.04
		c1.221,0,2.602,0.441,4.22,1.35c1.049,0.592,1.662,0.748,1.949,0.787c0.062-0.102,0.149-0.269,0.247-0.528l0.616-1.634l5.334,0.801
		l-2.8,6.289c-0.337,0.719-1.309,2.786-3.254,3.041c-0.203,0.027-0.414,0.041-0.631,0.041c-1.339,0-2.773-0.526-4.383-1.609
		c-0.824-0.553-1.337-0.765-1.607-0.846c-0.424,0.542-1.539,2.462-3.076,8.81c-0.919,3.609-1.749,7.675-2.482,12.157
		c2.379-2.779,4.792-4.31,7.281-4.637c0.327-0.043,0.648-0.064,0.964-0.064c1.932,0,4.685,0.812,6.834,4.682
		c1.359,2.266,2.292,5.153,2.736,8.523c1.056,8.009-0.261,16.306-3.913,24.657c-3.869,8.849-8.312,13.488-13.581,14.182
		c-0.391,0.052-0.783,0.077-1.164,0.077c-2.146,0-5.231-0.851-7.745-4.9c-1.747-2.709-2.943-6.378-3.535-10.872
		c-0.142-1.076-0.247-2.172-0.312-3.258c-0.242-5.357,0.328-11.713,1.694-18.96c-0.983-0.018-2.07-0.206-3.315-0.576
		c-1.183-0.35-1.776-0.435-2.04-0.452c-0.585,0.47-2.726,2.931-7.491,15.56c-0.316,9.604,0.081,17.612,1.179,23.805l0.352,1.986
		l-1.958,0.486c-0.701,0.175-2.342,0.679-6.177,2.088l-2.422,0.89l-0.45-2.54c-0.104-0.59-0.202-1.193-0.292-1.81l-0.904,1.546
		c-1.179,2.036-2.78,3.301-4.754,3.751c-0.31,0.071-0.627,0.107-0.943,0.107c-1.767,0-3.384-1.081-4.807-3.215
		c-0.652-0.979-1.206-2.094-1.659-3.334c-3.25,7.969-5.708,9.67-7.733,10.133C261.581,478.983,261.134,479.033,260.691,479.033z
		 M277.322,434.059c-0.751,12.1-0.33,21.729,1.255,28.659c0.232,1.014,0.451,1.718,0.633,2.202c0.516-0.717,1.309-1.968,2.456-4.13
		l0.378-0.713c-0.177-7.524,0.465-16.274,1.916-26.088c-0.484,0.488-1.044,1.067-1.688,1.753l-1.477,1.569L277.322,434.059z
		 M313.874,444.423c-0.167,3.475-0.068,6.632,0.294,9.388c0.209,1.582,0.672,3.264,1.375,4.996c0.684,1.645,1.205,2.185,1.391,2.337
		c0.578-0.166,2.738-1.402,4.942-10.217c1.812-7.247,2.308-14.126,1.475-20.444c-0.211-1.611-0.648-3.154-1.297-4.588
		c-0.241-0.592-0.442-0.973-0.59-1.212c-0.557,0.483-1.76,1.91-3.446,6.017C316.388,434.639,314.995,439.254,313.874,444.423z
		 M502.652,476.214c-0.914,0-1.818-0.117-2.688-0.348c-3.601-0.952-6.168-3.276-7.423-6.721c-0.201-0.52-0.367-1.063-0.499-1.629
		l-4.004,2.791c-1.466,1.029-2.985,1.553-4.51,1.553c-0.461,0-0.925-0.049-1.38-0.145c-2.666-0.566-4.072-2.597-4.208-6.056
		l-2.441,1.903c-1.538,1.211-3.113,1.828-4.674,1.828c-0.306,0-0.613-0.024-0.914-0.071c-2.115-0.329-3.646-1.769-4.305-4.051
		c-0.52-1.801-0.537-4.185-0.055-7.286c0.503-3.222,2.528-8.993,6.193-17.643c1.739-4.102,3.05-7.177,3.934-9.228
		c0.053-0.124,0.105-0.244,0.155-0.361c-1.877,1.108-5.311,3.634-11.39,9.363c-3.738,9.765-6.121,17.854-7.085,24.047l-0.31,1.984
		l-2.001-0.163c-0.344-0.028-1.064-0.062-2.541-0.062c-1.049,0-2.343,0.017-3.881,0.049l-2.576,0.055l0.377-2.422
		c-1.448,1.176-3.017,1.773-4.662,1.773c-0.19,0-0.382-0.008-0.574-0.024c-1.483-0.125-3.477-1.043-4.528-4.709
		c-0.323-1.138-0.512-2.372-0.564-3.691c-5.34,6.36-8.154,7.321-10.058,7.321c-0.134,0-0.266-0.006-0.395-0.017
		c-2.819-0.242-4.959-2.27-6.362-6.026c-1.021-2.661-1.436-5.27-1.227-7.735c0.33-3.896,1.536-8.41,3.584-13.414
		c1.88-4.056,3.74-8.081,5.597-12.115c-0.01,0.001-0.021,0.002-0.03,0.004c-0.594,0.349-1.243,0.741-1.947,1.178l-1.827,1.133
		l-2.734-4.365c-0.244-0.101-0.41-0.155-0.515-0.185c-0.671,0.344-3.268,2.328-10.485,13.719
		c-2.254,9.342-3.488,17.265-3.666,23.552l-0.057,2.014l-2.013,0.083c-0.726,0.03-2.438,0.191-6.476,0.794l-2.551,0.38l0.073-2.578
		c0.02-0.685,0.052-1.387,0.097-2.103l-1.487,1.657c-1.562,1.755-3.311,2.67-5.189,2.712l-0.126,0.002
		c-3.937,0-6.009-3.498-6.161-10.396c-0.072-3.257,0.909-9.294,2.997-18.458c0.992-4.348,1.742-7.608,2.251-9.781
		c0.031-0.132,0.061-0.26,0.09-0.385c-1.649,1.418-4.583,4.507-9.569,11.228c-1.963,10.271-2.888,18.652-2.75,24.916l0.044,2.005
		l-1.995,0.193c-0.664,0.063-2.3,0.31-6.327,1.118l-2.527,0.507l-0.057-2.577c-0.007-0.35-0.012-0.706-0.012-1.069l-0.624,0.778
		c-1.459,1.84-3.228,2.856-5.25,3.016c-0.113,0.009-0.224,0.013-0.333,0.013c-2.02,0-3.668-1.321-4.901-3.927
		c-0.501-1.064-0.886-2.249-1.153-3.542c-4.382,7.409-7.061,8.733-9.13,8.896c-0.182,0.014-0.359,0.021-0.534,0.021
		c-1.837,0-4.451-0.768-6.474-4.427c-1.266-2.25-2.033-4.938-2.27-7.978c-0.619-7.911,1.113-15.939,5.149-23.862
		c4.912-9.737,11.957-15.036,20.935-15.739c4.117-0.321,5.74-0.947,6.341-1.292l1.53-0.877l2.961,3.362l-1.623,1.428
		c-1.287,1.132-2.074,2.607-2.404,4.51c6.946-6.446,9.533-7.378,11.138-7.412c0.001,0,0.002,0,0.003,0
		c0.968,0,3.833,0.371,3.939,5.077c0.013,0.598-0.049,1.311-0.189,2.149c4.646-5.008,8.883-7.506,12.828-7.592l0.108-0.002
		c0.978,0,4.176,0.39,4.286,5.404c0.006,0.248,0.012,0.529-0.482,2.762l0.047-0.04c7.899-6.754,10.733-7.665,12.463-7.665
		l0.118,0.002c1.049,0.03,3.387,0.542,3.565,4.451c2.594-3.263,4.885-4.812,7.114-4.812l0.135,0.002
		c1.256,0.034,2.774,0.56,4.774,1.65c1.187,0.65,1.799,0.934,2.09,1.054c0.12-0.125,0.465-0.51,0.873-1.521l0.85-2.106l4.634,2.146
		l-0.188,0.512c0.08-0.004,0.159-0.006,0.237-0.006c0.126,0,0.248,0.005,0.365,0.015c2.967,0.252,4.644,2.38,4.375,5.555
		c-0.03,0.468-0.03,0.468-5.745,12.873c-3.576,7.763-5.604,14.22-6.025,19.193c-0.055,0.648,0.161,1.393,0.642,2.209
		c0.155,0.264,0.286,0.459,0.392,0.603c0.923-0.69,3.302-3.068,8.533-11.243c1.549-4.895,4.029-12.166,7.377-21.62
		c2.031-5.1,2.728-6.373,4.457-6.373h0.093l0.099,0.008c1.71,0.146,4.065,0.533,7.198,1.187l1.872,0.391l-0.355,4.206l-1.74,0.215
		c-0.398,0.05-1.116,0.755-1.825,2.581c-0.02,0.048-0.038,0.096-0.058,0.144l0.197-0.13c8.209-5.393,11.082-6.084,12.668-6.084
		c0.239,0,0.461,0.018,0.667,0.05c1.32,0.205,2.348,1.051,2.815,2.321c0.33,0.896,0.386,1.999,0.172,3.371
		c-0.092,0.595-0.274,1.278-0.557,2.073c4.741-3.577,8.836-5.333,12.393-5.333c0.531,0,1.057,0.04,1.563,0.118
		c0.992,0.155,4.164,1.053,3.378,6.093c-0.032,0.207-0.068,0.435-0.575,1.698c7.216-4.078,9.936-4.572,11.362-4.572
		c0.346,0,0.674,0.032,0.978,0.097c1.299,0.275,2.255,1.191,2.621,2.514c0.247,0.891,0.229,1.974-0.054,3.31
		c-0.094,0.445-0.191,0.907-6.532,13.889c-4.048,8.29-6.416,13.982-7.038,16.918c-0.229,1.079-0.319,1.832-0.346,2.346
		c0.722-0.398,1.903-1.147,3.771-2.552c0.081-0.429,0.175-0.845,0.283-1.254c1.983-7.49,6.741-14.592,14.139-21.105
		c6.465-5.69,11.861-8.457,16.5-8.457c0.934,0,1.843,0.116,2.703,0.344c2.218,0.585,4.925,2.509,5.216,8.349l0.052,1.031
		l-7.539,6.729l-3.864-3.723l1.576-1.556c1.051-1.037,1.721-2.02,1.938-2.842c0.398-1.504,0.205-2.02,0.174-2.087l0,0
		c-0.008,0-0.052-0.021-0.14-0.045c-0.058-0.016-0.128-0.023-0.208-0.023c-0.634,0-3.166,0.523-9.152,7.258
		c-5.136,5.872-8.508,11.735-10.012,17.415c-1.258,4.751-1.189,7.928,0.179,8.29c0.221,0.059,0.44,0.087,0.671,0.087
		c1.054,0,2.299-0.611,3.702-1.817c1.964-1.69,3.208-3.604,3.804-5.849c0.143-0.545,0.252-1.086,0.325-1.603l0.276-1.979l5.392,0.33
		l-1.053,9.521l-0.32,0.454c-1.402,1.99-3.487,3.83-6.196,5.468C507.747,475.363,505.122,476.214,502.652,476.214z M485.343,433.256
		c-0.847,1.947-1.991,4.546-3.541,8.027c-3.718,8.349-5.831,14.043-6.281,16.926c-0.169,1.091-0.219,1.848-0.218,2.362
		c0.726-0.454,1.925-1.311,3.83-2.923c1.047-4.042,2.541-8.068,4.449-11.988c1.423-2.82,3.732-6.902,6.89-12.182
		c-0.626,0.27-1.353,0.593-2.195,0.981l-1.954,0.9L485.343,433.256z M453.674,426.75c-4.276,11.058-6.738,20.178-7.33,27.151
		c-0.088,1.034-0.095,1.771-0.068,2.289c0.521-0.386,1.271-0.999,2.32-1.971c2.257-7.593,5.973-16.411,11.065-26.266
		c-0.611,0.321-1.326,0.717-2.158,1.204l-1.939,1.135L453.674,426.75z M353.262,424.03c-7.035,1.365-9.915,11.009-8.533,28.656
		c0.097,1.238,0.229,2.102,0.356,2.694c1.007-1.323,2.901-4.46,6.094-11.877c1.097-7.734,2.208-14.339,3.311-19.694L353.262,424.03z
		 M364.484,423.294c-2.405,12.387-3.362,22.011-2.844,28.628c0.081,1.037,0.194,1.766,0.304,2.272
		c0.614-0.633,1.577-1.749,3.021-3.711c0.967-7.601,3.015-16.477,6.101-26.447c-0.546,0.424-1.18,0.938-1.915,1.564l-1.711,1.457
		L364.484,423.294z M397.57,423.512c-0.507,2.162-1.258,5.266-2.366,9.754c-2.192,8.879-3.271,14.856-3.206,17.766
		c0.024,1.104,0.108,1.859,0.199,2.365c0.644-0.581,1.694-1.656,3.325-3.631l0.864-1.047c1.362-7.307,3.74-15.616,7.094-24.785
		c-0.573,0.38-1.237,0.833-2.007,1.372l-1.762,1.235L397.57,423.512z M502.502,420.499c-0.354,0-0.717-0.038-1.077-0.114
		c-1.646-0.347-2.454-1.295-2.842-2.03c-0.728-1.376-0.624-3.154,0.316-5.435c1.627-3.962,4.021-4.794,5.744-4.794
		c0.383,0,0.775,0.042,1.168,0.125c1.655,0.349,2.455,1.304,2.835,2.044c0.71,1.386,0.567,3.168-0.438,5.448
		C506.813,418.9,504.894,420.499,502.502,420.499L502.502,420.499z"/>
	<path style="fill:#58595B;" d="M329.36,422.057c-1.472-2.65-3.349-3.824-5.629-3.524c-3.606,0.474-7.303,4.518-11.089,12.127
		c1.027-8.668,2.331-16.099,3.91-22.297c1.647-6.803,3.207-10.303,4.68-10.496c0.808-0.107,1.91,0.311,3.308,1.248
		c1.396,0.939,2.572,1.346,3.528,1.22c0.514-0.067,1.036-0.659,1.562-1.778l1.646-3.696l-0.801-0.12
		c-0.445,1.18-1.034,1.82-1.769,1.917c-0.883,0.115-2.051-0.235-3.507-1.054c-1.456-0.817-2.624-1.17-3.507-1.052
		c-3.09,0.407-6.594,7.474-10.51,21.201c-0.387,1.355-0.736,2.666-1.08,3.972l-0.696-0.163c-0.382,2.102-1.157,3.259-2.325,3.465
		c-0.366,0.065-1.445-0.176-3.237-0.726c-1.794-0.548-3.128-0.746-4.005-0.589c-1.682,0.298-3.415,2.413-5.206,6.348
		c-0.61,1.239-1.965,4.644-4.066,10.218c0.029-0.685,0.27-2.724,0.724-6.12c0.257-2.381,0.287-4.122,0.092-5.218
		c-0.35-1.972-1.037-2.868-2.059-2.687c-1.754,0.311-4.9,3.396-9.44,9.248l0.813,0.761c2.981-3.168,4.836-4.815,5.568-4.944
		c0.438-0.078,0.6,0.196,0.485,0.82c-2.07,12.477-2.884,23.128-2.474,31.997l-0.702-0.333c-2.022,3.813-3.465,5.818-4.333,6.016
		c-1.086,0.248-2.009-1.291-2.77-4.618c-1.721-7.524-2.115-17.901-1.183-31.132c0.16-2.622,0.895-4.237,2.203-4.842l-0.124-0.544
		c-3.049,0.317-5.37,0.657-6.96,1.022c-0.29,0.065-0.56,1.881-0.811,5.437c-0.316,10.274-0.461,17.957-0.437,23.051
		c-2.612,9.885-4.749,15.016-6.412,15.396c-0.58,0.133-1.395-0.27-2.447-1.209c-1.053-0.939-1.702-1.952-1.95-3.037
		c-1.175-5.135-1.224-12.09-0.148-20.862c1.077-8.77,1.607-13.194,1.59-13.266c-0.447-1.954-1.538-2.733-3.274-2.335
		c-1.736,0.398-4.727,3.633-8.971,9.703l0.85,0.72c2.82-3.309,4.592-5.048,5.315-5.213c0.435-0.1,0.609,0.165,0.524,0.794
		c-0.712,5.872-1.432,11.709-2.161,17.507c-0.411,5.196-0.202,9.6,0.625,13.218c0.48,2.098,1.519,4.144,3.116,6.137
		c1.932,2.452,3.836,3.461,5.718,3.031c2.604-0.596,5.51-5.863,8.716-15.81c0.188,1.494,0.476,3.078,0.86,4.755
		c0.467,2.046,1.164,3.765,2.095,5.163c1.155,1.733,2.313,2.465,3.472,2.2c1.373-0.313,2.497-1.226,3.371-2.735l4.261-7.291
		c0.168,2.961,0.474,5.719,0.926,8.267c3.184-1.17,5.318-1.887,6.4-2.157c-1.144-6.446-1.544-14.649-1.199-24.61
		c4.198-11.174,7.247-16.929,9.148-17.266c0.584-0.104,1.632,0.07,3.144,0.517c1.51,0.448,2.741,0.587,3.691,0.42
		c0.799-0.142,1.493-0.833,2.091-2.02c-2.025,9.055-2.907,16.757-2.621,23.078c0.062,1.041,0.161,2.076,0.297,3.104
		c0.552,4.194,1.628,7.533,3.228,10.016c1.804,2.907,4.069,4.178,6.792,3.82c4.413-0.58,8.374-4.881,11.883-12.905
		c3.508-8.022,4.759-15.857,3.75-23.51C331.435,426.722,330.607,424.137,329.36,422.057z M323.973,451.451
		c-1.888,7.548-4.193,11.501-6.913,11.859c-1.252,0.165-2.425-1.065-3.518-3.691c-0.778-1.918-1.282-3.761-1.515-5.526
		c-0.387-2.941-0.488-6.259-0.301-9.953c1.16-5.389,2.593-10.146,4.295-14.262c1.983-4.826,3.82-7.353,5.513-7.576
		c0.883-0.115,1.712,0.785,2.489,2.702c0.737,1.626,1.229,3.359,1.471,5.196C326.366,436.822,325.858,443.905,323.973,451.451z
		 M501.873,418.272c1.741,0.37,3.194-0.763,4.359-3.4c1.163-2.637,0.876-4.139-0.867-4.507c-1.887-0.4-3.378,0.726-4.468,3.378
		C499.803,416.395,500.129,417.904,501.873,418.272z M525.061,432.377c-4.376-1.159-10.118,1.391-17.223,7.646
		c-7.107,6.257-11.598,12.935-13.479,20.038c-0.233,0.881-0.373,1.73-0.462,2.562l-0.306-0.366
		c-3.437,2.613-5.587,3.824-6.459,3.641c-1.163-0.248-1.389-2.039-0.683-5.379c0.661-3.122,3.063-8.927,7.211-17.418
		c4.146-8.49,6.268-12.953,6.359-13.388c0.415-1.961,0.113-3.048-0.902-3.263c-1.744-0.37-5.815,1.311-12.216,5.039l0.47,1.009
		c3.948-1.82,6.287-2.652,7.013-2.498c0.435,0.091,0.483,0.404,0.141,0.941c-4.305,7.076-7.305,12.298-9.003,15.664
		c-2.104,4.324-3.628,8.63-4.63,12.926l-0.283-0.304c-3.289,2.791-5.372,4.12-6.252,3.983c-1.174-0.185-1.496-1.961-0.972-5.335
		c0.48-3.078,2.626-8.903,6.442-17.47c3.813-8.568,5.759-13.109,5.839-13.622c0.343-2.2-0.183-3.409-1.576-3.626
		c-4.839-0.752-11.442,3.061-19.808,11.446c0.25-0.637,1.15-2.561,2.702-5.774c1.098-2.233,1.735-3.898,1.904-4.998
		c0.309-1.981-0.087-3.055-1.187-3.226c-1.687-0.263-5.624,1.639-11.816,5.707l0.524,0.983c3.55-2.076,5.839-3.033,6.868-2.874
		c0.365,0.059,0.43,0.37,0.193,0.935c-6.187,11.522-10.504,21.529-12.971,30.04c-2.584,2.439-4.281,3.637-5.08,3.568
		c-1.109-0.094-1.52-1.841-1.23-5.244c0.652-7.69,3.437-17.692,8.357-30.01c0.952-2.45,2.144-3.765,3.574-3.941l0.048-0.554
		c-3.002-0.626-5.315-1.011-6.942-1.148c-0.296-0.026-1.107,1.62-2.428,4.933c-3.431,9.69-5.909,16.964-7.44,21.823
		c-5.498,8.62-9.096,12.855-10.796,12.712c-0.594-0.05-1.248-0.683-1.963-1.898c-0.715-1.215-1.026-2.378-0.933-3.487
		c0.446-5.248,2.518-11.888,6.216-19.914c3.698-8.026,5.55-12.079,5.555-12.153c0.17-1.996-0.633-3.07-2.407-3.22
		c-0.887-0.076-2.29,0.429-4.207,1.514c0.42-0.892,0.842-1.902,1.266-3.062l-0.77-0.357c-0.8,1.983-1.794,2.957-2.978,2.922
		c-0.372-0.011-1.378-0.465-3.022-1.367c-1.646-0.898-2.913-1.363-3.802-1.387c-1.709-0.05-3.835,1.672-6.383,5.163
		c-0.85,1.089-2.865,4.15-6.052,9.181c0.167-0.663,0.816-2.611,1.949-5.846c0.733-2.281,1.115-3.978,1.147-5.089
		c0.057-2.004-0.435-3.02-1.473-3.05c-1.779-0.05-5.486,2.333-11.116,7.146l0.642,0.909c3.56-2.496,5.71-3.735,6.452-3.713
		c0.446,0.011,0.548,0.313,0.309,0.9c-4.593,11.902-7.564,22.247-8.944,31.065l-0.863-0.648c-2.748,3.328-4.565,5-5.456,5.02
		c-1.188,0.026-1.819-1.667-1.894-5.081c-0.068-3.115,1.021-9.224,3.269-18.331c2.249-9.105,3.368-13.916,3.356-14.436
		c-0.049-2.226-0.779-3.324-2.188-3.291c-4.896,0.107-10.727,5.024-17.488,14.749c0.133-0.672,0.68-2.724,1.645-6.161
		c0.689-2.389,1.023-4.142,0.998-5.255c-0.045-2.002-0.623-2.991-1.736-2.968c-1.708,0.037-5.25,2.604-10.63,7.694l0.688,0.876
		c3.132-2.668,5.217-4.011,6.257-4.035c0.371-0.009,0.488,0.287,0.353,0.885c-3.954,12.09-6.402,22.441-7.393,31.108l-0.251-0.168
		c-2.558,3.476-4.278,5.248-5.167,5.318c-1.11,0.087-1.798-1.57-2.064-4.974c-0.567-7.25,0.544-17.757,3.337-31.523l1.545-0.233
		c0.407-2.413,1.446-4.357,3.116-5.826l-0.367-0.417c-1.354,0.776-3.77,1.3-7.246,1.572c-8.211,0.643-14.605,5.498-19.179,14.566
		c-3.871,7.598-5.511,15.168-4.921,22.714c0.214,2.737,0.884,5.105,2.008,7.1c1.301,2.354,2.95,3.452,4.948,3.298
		c2.663-0.209,6.307-4.998,10.933-14.366c-0.033,1.504,0.021,3.113,0.154,4.828c0.164,2.091,0.602,3.896,1.317,5.413
		c0.89,1.883,1.928,2.776,3.113,2.685c1.404-0.111,2.65-0.848,3.734-2.213l4.797-5.984c-0.251,2.694-0.368,5.234-0.317,7.578
		c3.325-0.667,5.506-1.05,6.544-1.15c-0.145-6.544,0.815-15.162,2.881-25.853c6.703-9.079,11.166-13.644,13.392-13.692
		c0.667-0.015,1.009,0.313,1.023,0.983c-0.004-0.224-1.022,4.115-3.052,13.018c-2.029,8.903-3.011,14.879-2.944,17.929
		c0.123,5.579,1.482,8.34,4.08,8.283c1.261-0.028,2.471-0.694,3.631-1.996l5.974-6.653c-0.465,3.052-0.741,5.924-0.817,8.603
		c3.354-0.5,5.589-0.77,6.705-0.815c0.186-6.544,1.456-14.659,3.81-24.345c6.373-10.092,10.526-15.109,12.454-15.055
		c0.594,0.017,1.585,0.4,2.974,1.144c0.6,0.322,1.152,0.563,1.673,0.751c-0.414,0.307-0.816,0.601-1.253,0.934l0.591,0.944
		c0.909-0.564,1.727-1.055,2.457-1.477c0.02,0.001,0.043,0.007,0.062,0.007c0.718,0.02,1.441-0.396,2.17-1.207
		c0.958-0.465,1.622-0.696,1.961-0.667c0.444,0.037,0.53,0.344,0.259,0.915c-2.468,5.376-4.933,10.716-7.392,16.016
		c-1.974,4.824-3.118,9.083-3.431,12.779c-0.183,2.146,0.183,4.411,1.098,6.796c1.091,2.924,2.598,4.465,4.522,4.631
		c2.661,0.226,7.035-3.909,13.118-12.405c-0.276,1.48-0.485,3.076-0.63,4.792c-0.178,2.089-0.037,3.942,0.422,5.557
		c0.574,2,1.452,3.052,2.637,3.152c1.404,0.12,2.752-0.407,4.044-1.578l4.506-4.051c-0.564,2.174-1.039,4.275-1.345,6.24
		c3.389-0.072,5.602-0.065,6.644,0.02c1.007-6.47,3.465-14.786,7.379-24.947c8.194-7.759,13.39-11.468,15.59-11.124
		c0.659,0.102,0.937,0.485,0.835,1.146c0.035-0.22-1.731,3.874-5.294,12.279c-3.563,8.409-5.579,14.118-6.048,17.133
		c-0.859,5.516-0.007,8.47,2.561,8.87c1.246,0.196,2.552-0.248,3.924-1.326l6.411-4.999c-1.083,5.305-0.419,8.225,2.014,8.741
		c1.376,0.291,2.781-0.065,4.207-1.067l7.042-4.907c-0.061,1.696,0.155,3.297,0.726,4.778c1.022,2.802,3.004,4.594,5.946,5.372
		c2.652,0.702,5.587,0.061,8.8-1.931c2.47-1.494,4.318-3.118,5.548-4.863l0.741-6.713l-1.133-0.07
		c-0.083,0.594-0.207,1.211-0.376,1.857c-0.704,2.657-2.198,4.965-4.483,6.933c-2.289,1.967-4.398,2.694-6.335,2.181
		c-2.87-0.761-3.441-4.402-1.713-10.931c1.596-6.026,5.089-12.127,10.485-18.297c5.246-5.902,9.09-8.533,11.529-7.887
		c1.722,0.457,2.222,2.048,1.5,4.772c-0.324,1.222-1.161,2.496-2.509,3.826l0.826,0.796l5.274-4.707
		C528.489,435.088,527.285,432.964,525.061,432.377z M353.277,444.092c-4.028,9.396-6.894,14.159-8.594,14.294
		c-1.11,0.087-1.813-1.757-2.108-5.531c-1.489-19.012,1.946-29.33,10.304-30.952l4.405-0.791
		C355.955,426.95,354.618,434.607,353.277,444.092z"/>
</g>
</svg>
